<svg xmlns="http://www.w3.org/2000/svg" viewBox="0 0 252.96 253.05"><g id="Layer_2" data-name="Layer 2"><g id="Icon"><path d="M253,97a10.3,10.3,0,0,0-3-7.29L234.83,74.6a21.06,21.06,0,0,0-3.32-25.35L188.43,6.17a21.11,21.11,0,0,0-29.83,0L6.17,158.6a21.11,21.11,0,0,0,0,29.83l43.08,43.08a20.87,20.87,0,0,0,25.24,3.38L89.63,250a10.3,10.3,0,0,0,14.57,0l29.15-29.15a10.29,10.29,0,0,0,0-14.57l-14.53-14.53,14.57-14.58,14.54,14.53a10.3,10.3,0,0,0,14.57,0l29.14-29.14h0l58.28-58.28A10.28,10.28,0,0,0,253,97Zm-68.6,43.72-7.25-7.24,14.58-14.58,7.25,7.25ZM63.82,216.94,20.74,173.86a.49.49,0,0,1,0-.69L173.17,20.74a.52.52,0,0,1,.35-.14.51.51,0,0,1,.34.14l43.08,43.08a.49.49,0,0,1,0,.69L184.82,96.63c-.15.13-.32.23-.46.37s-.24.31-.37.45L64.51,216.94A.51.51,0,0,1,63.82,216.94Zm47.67-3.34L96.92,228.17l-7.25-7.25,14.57-14.57Zm43.72-43.73L148,162.62l14.57-14.57,7.25,7.24Zm58.3-58.3-7.25-7.24,14.58-14.57L228.08,97Z"/><path d="M60.48,162.59a10.3,10.3,0,0,0-14.57,14.57l14.57,14.57a10.3,10.3,0,1,0,14.57-14.57Z"/><path d="M118.77,104.29a10.3,10.3,0,0,0-14.57,14.57l14.58,14.58a10.31,10.31,0,1,0,14.57-14.58Z"/><path d="M147.92,75.14a10.3,10.3,0,0,0-14.57,14.57l14.58,14.58A10.31,10.31,0,0,0,162.5,89.71Z"/><path d="M177.07,75.14a10.31,10.31,0,1,0,14.58-14.58L177.07,46A10.3,10.3,0,0,0,162.5,60.56Z"/></g></g></svg>