<svg xmlns="http://www.w3.org/2000/svg" viewBox="0 0 249.22 219.61"><g id="Layer_2" data-name="Layer 2"><g id="Icon"><path d="M123.09,136.82H58.19a10.31,10.31,0,1,0,0,20.61h64.9a10.31,10.31,0,1,0,0-20.61Z"/><path d="M243.74,17.2,231.85,5.31a19.15,19.15,0,0,0-26.47,0l-70,70H61.81A30.93,30.93,0,0,0,32.89,95.42L2,177.86a30.89,30.89,0,0,0,28.92,41.75H198.15a30.89,30.89,0,0,0,28.92-41.75L195,92.39l48.72-48.72A18.73,18.73,0,0,0,243.74,17.2Zm-36,167.91A10.27,10.27,0,0,1,198.15,199H30.89a10.27,10.27,0,0,1-9.62-13.9L52.2,102.61A10.14,10.14,0,0,1,61.81,96H118.7l-6.22,22.8a14.52,14.52,0,0,0,17.82,17.82l23.45-6.4a18.78,18.78,0,0,0,8.31-4.82L179,108.4Zm-59.92-74.69-12.68,3.46,3.46-12.68L197.8,42,207,51.25Zm73.74-73.75-9.22-9.21,6.24-6.24,9.22,9.21Z"/></g></g></svg>