<svg xmlns="http://www.w3.org/2000/svg" viewBox="0 0 247.33 247.33"><g id="Layer_2" data-name="Layer 2"><g id="Icon"><path d="M217.3,0H30A30.08,30.08,0,0,0,0,30V160.61a30.07,30.07,0,0,0,30,30h83.32v20.94c-29.37,1.06-57.42,6.67-72.7,16.86A10.3,10.3,0,0,0,52.09,245.6c27.43-18.28,115.73-18.28,143.15,0a10.3,10.3,0,0,0,14.29-2.86,10.31,10.31,0,0,0-2.85-14.29c-15.29-10.19-43.33-15.8-72.71-16.86V190.65H217.3a30.06,30.06,0,0,0,30-30V30A30.07,30.07,0,0,0,217.3,0Zm9.42,160.61A9.44,9.44,0,0,1,217.3,170H30a9.44,9.44,0,0,1-9.43-9.43V30A9.44,9.44,0,0,1,30,20.61H217.3A9.44,9.44,0,0,1,226.72,30Z"/></g></g></svg>