<svg xmlns="http://www.w3.org/2000/svg" viewBox="0 0 247.33 247.33"><g id="Layer_2" data-name="Layer 2"><g id="Icon"><path d="M216.42,56.68H195.81V30.92A31,31,0,0,0,164.89,0H82.44A31,31,0,0,0,51.53,30.92V56.68H30.92A31,31,0,0,0,0,87.6v72.14a31,31,0,0,0,30.92,30.91H51.53v25.77a30.94,30.94,0,0,0,30.91,30.91h82.45a31,31,0,0,0,30.92-30.91V190.65h20.61a30.94,30.94,0,0,0,30.91-30.91V87.6A31,31,0,0,0,216.42,56.68ZM72.14,30.92a10.32,10.32,0,0,1,10.3-10.31h82.45a10.32,10.32,0,0,1,10.3,10.31V56.68h-103Zm103.05,185.5a10.31,10.31,0,0,1-10.3,10.3H82.44a10.31,10.31,0,0,1-10.3-10.3V139.13H175.19Zm51.53-56.68a10.31,10.31,0,0,1-10.3,10.3H195.81V139.13a10.31,10.31,0,0,0,0-20.62H51.53a10.31,10.31,0,0,0,0,20.62V170H30.92a10.31,10.31,0,0,1-10.31-10.3V87.6A10.32,10.32,0,0,1,30.92,77.29h185.5a10.32,10.32,0,0,1,10.3,10.31Z"/><path d="M51.53,87.6H41.22a10.31,10.31,0,0,0,0,20.61H51.53a10.31,10.31,0,0,0,0-20.61Z"/></g></g></svg>