<svg xmlns="http://www.w3.org/2000/svg" viewBox="0 0 216.42 164.89"><g id="Layer_2" data-name="Layer 2"><g id="Icon"><path d="M189.09,0H27.33C12.26,0,0,11.82,0,26.34V66.41c0,10,5,20.68,9.39,28.93l29.67,55.22A27.36,27.36,0,0,0,63.4,164.89H153a27.33,27.33,0,0,0,24.31-14.29l29.72-55.3c4.36-8.21,9.37-18.91,9.37-28.89V26.34C216.42,11.82,204.16,0,189.09,0Zm6.72,66.41c0,6.12-5.24,16-6.94,19.17l-29.72,55.31a6.89,6.89,0,0,1-6.13,3.39H63.4a6.91,6.91,0,0,1-6.16-3.44L27.57,85.62c-1.72-3.23-7-13.09-7-19.21V26.34c0-3.16,3-5.73,6.72-5.73H189.09c3.7,0,6.72,2.57,6.72,5.73Z"/><path d="M108.21,82.44A10.32,10.32,0,0,0,97.9,92.75v25.76a10.31,10.31,0,1,0,20.61,0V92.75A10.31,10.31,0,0,0,108.21,82.44Z"/><path d="M159.74,36.07a10.31,10.31,0,0,0-10.31,10.31V72.14a10.31,10.31,0,0,0,20.61,0V46.38A10.3,10.3,0,0,0,159.74,36.07Z"/><path d="M56.68,36.07a10.3,10.3,0,0,0-10.3,10.31V72.14a10.31,10.31,0,0,0,20.61,0V46.38A10.31,10.31,0,0,0,56.68,36.07Z"/></g></g></svg>