<svg xmlns="http://www.w3.org/2000/svg" viewBox="0 0 247.31 247.32"><g id="Layer_2" data-name="Layer 2"><g id="Icon"><path d="M240.69,53.63l-47-47a22.65,22.65,0,0,0-32,0L121.23,47.08a28.86,28.86,0,0,0-28.94,7.46L8.67,138.17a29.66,29.66,0,0,0,0,41.91l58.56,58.57a29.67,29.67,0,0,0,41.92,0L192.78,155a28.87,28.87,0,0,0,7.46-28.95l40.45-40.44A22.67,22.67,0,0,0,240.69,53.63ZM178.2,140.45,94.58,224.08a9,9,0,0,1-12.77,0L23.24,165.51a9,9,0,0,1,0-12.77l83.62-83.63a9.05,9.05,0,0,1,12.78,0l58.56,58.57h0a9,9,0,0,1,0,12.77Zm47.91-69.39-37.69,37.69L138.56,58.89l37.7-37.69a1.76,1.76,0,0,1,2.86,0l47,47A2,2,0,0,1,226.11,71.06Z"/><path d="M185,40.87a10.29,10.29,0,0,0-14.57,0L159.66,51.61a10.3,10.3,0,1,0,14.57,14.57L185,55.44A10.29,10.29,0,0,0,185,40.87Z"/><path d="M59.68,151.84a10.3,10.3,0,0,0-14.57,14.57l35.8,35.8a10.31,10.31,0,1,0,14.57-14.58Z"/><path d="M191.88,62.34,181.14,73.08a10.31,10.31,0,1,0,14.57,14.58l10.74-10.74a10.31,10.31,0,1,0-14.57-14.58Z"/></g></g></svg>