<svg xmlns="http://www.w3.org/2000/svg" viewBox="0 0 247.33 247.33"><g id="Layer_2" data-name="Layer 2"><g id="Icon"><path d="M238.28,58.81,188.52,9.06A30.73,30.73,0,0,0,166.66,0H30.92A31,31,0,0,0,0,30.92v185.5a31,31,0,0,0,30.92,30.91h185.5a30.94,30.94,0,0,0,30.91-30.91V80.68A30.72,30.72,0,0,0,238.28,58.81ZM61.83,20.61H77.29V41.22a10.31,10.31,0,1,0,20.61,0V20.61h10.31V41.22a10.31,10.31,0,1,0,20.61,0V20.61h15.46V77.29A10.33,10.33,0,0,1,134,87.6H72.14A10.33,10.33,0,0,1,61.83,77.29ZM226.72,216.42a10.31,10.31,0,0,1-10.3,10.3H30.92a10.32,10.32,0,0,1-10.31-10.3V30.92A10.33,10.33,0,0,1,30.92,20.61h10.3V77.29a31,31,0,0,0,30.92,30.92H134a31,31,0,0,0,30.92-30.92V20.61h1.77a10.24,10.24,0,0,1,7.29,3L223.7,73.39a10.23,10.23,0,0,1,3,7.29Z"/><path d="M154.58,144.28h-103a10.31,10.31,0,1,0,0,20.61H154.58a10.31,10.31,0,1,0,0-20.61Z"/><path d="M154.58,185.5h-103a10.31,10.31,0,1,0,0,20.61H154.58a10.31,10.31,0,1,0,0-20.61Z"/></g></g></svg>