<svg xmlns="http://www.w3.org/2000/svg" viewBox="0 0 247.33 242.18"><g id="Layer_2" data-name="Layer 2"><g id="Icon"><path d="M123.67,164.89A56.68,56.68,0,1,0,67,108.21,56.75,56.75,0,0,0,123.67,164.89Zm0-92.75A36.07,36.07,0,1,1,87.6,108.21,36.12,36.12,0,0,1,123.67,72.14Z"/><path d="M107.18,118.51a10.3,10.3,0,0,0,10.3-10.3,6.2,6.2,0,0,1,6.19-6.19,10.31,10.31,0,0,0,0-20.61,26.83,26.83,0,0,0-26.8,26.8A10.31,10.31,0,0,0,107.18,118.51Z"/><path d="M245.68,226.31h0l-.09-.13-.11-.15a144.75,144.75,0,0,0-59.95-52.35,97.91,97.91,0,1,0-123.77,0A144.87,144.87,0,0,0,1.83,226l-.1.15-.1.13h0a10.28,10.28,0,0,0,8.66,15.87H237a10.28,10.28,0,0,0,8.65-15.87ZM46.38,97.9a77.29,77.29,0,1,1,77.29,77.29A77.37,77.37,0,0,1,46.38,97.9Zm37.1,89.18a96.85,96.85,0,0,0,80.37,0,124.13,124.13,0,0,1,52.32,34.49h-185A124.19,124.19,0,0,1,83.48,187.08Z"/></g></g></svg>