<svg xmlns="http://www.w3.org/2000/svg" viewBox="0 0 247.33 133.97"><g id="Layer_2" data-name="Layer 2"><g id="Icon"><path d="M216.42,0H30.92A31,31,0,0,0,0,30.92v72.14A31,31,0,0,0,30.92,134h185.5a30.94,30.94,0,0,0,30.91-30.91V30.92A31,31,0,0,0,216.42,0Zm10.3,103.06a10.31,10.31,0,0,1-10.3,10.3H30.92a10.31,10.31,0,0,1-10.31-10.3V30.92A10.32,10.32,0,0,1,30.92,20.61h185.5a10.32,10.32,0,0,1,10.3,10.31Z"/><path d="M206.11,30.92H41.22a10.3,10.3,0,0,0-10.3,10.3V72.14a10.3,10.3,0,0,0,10.3,10.3H61.83V92.75a10.31,10.31,0,1,0,20.61,0V82.44h30.92V92.75a10.31,10.31,0,1,0,20.61,0V82.44h30.92V92.75a10.31,10.31,0,1,0,20.61,0V82.44h20.61a10.31,10.31,0,0,0,10.31-10.3V41.22A10.31,10.31,0,0,0,206.11,30.92Zm-10.3,30.91H51.53V51.53H195.81Z"/></g></g></svg>