<svg xmlns="http://www.w3.org/2000/svg" viewBox="0 0 231.43 128.82"><g id="Layer_2" data-name="Layer 2"><g id="Icon"><path d="M225.56,12.84A30.58,30.58,0,0,0,200.48,0H31A30.92,30.92,0,0,0,1.62,40.69l22.33,67a30.86,30.86,0,0,0,29.33,21.14H178.15a30.86,30.86,0,0,0,29.33-21.14l22.33-67A30.59,30.59,0,0,0,225.56,12.84Zm-15.3,21.33-22.33,67a10.28,10.28,0,0,1-9.78,7H53.28a10.28,10.28,0,0,1-9.78-7l-22.33-67A10.31,10.31,0,0,1,31,20.61H200.48a10.31,10.31,0,0,1,9.78,13.56Z"/><circle cx="115.72" cy="46.38" r="10.31"/><circle cx="146.63" cy="46.38" r="10.31"/><circle cx="84.8" cy="46.38" r="10.31"/><circle cx="177.55" cy="46.38" r="10.31" transform="translate(-5.14 29.04) rotate(-9.22)"/><circle cx="53.88" cy="46.38" r="10.31"/><circle cx="100.26" cy="82.44" r="10.31" transform="translate(-14.28 143.52) rotate(-67.5)"/><circle cx="131.17" cy="82.44" r="10.31" transform="translate(4.81 172.08) rotate(-67.5)"/><circle cx="69.34" cy="82.44" r="10.31" transform="translate(-12.31 12.17) rotate(-9.22)"/><circle cx="162.09" cy="82.44" r="10.31" transform="translate(23.89 200.65) rotate(-67.5)"/></g></g></svg>