<svg xmlns="http://www.w3.org/2000/svg" viewBox="0 0 247.33 247.33"><g id="Layer_2" data-name="Layer 2"><g id="Icon"><path d="M216.42,0H30.92A31,31,0,0,0,0,30.92v185.5a31,31,0,0,0,30.92,30.91h185.5a31,31,0,0,0,30.91-30.92V30.92A31,31,0,0,0,216.42,0Zm10.3,216.41a10.33,10.33,0,0,1-10.31,10.31H30.92a10.31,10.31,0,0,1-10.31-10.3v-5.16H61.83a10.3,10.3,0,0,0,7.29-3L107.33,170h11.18a10.31,10.31,0,1,0,0-20.61H103.06a10.31,10.31,0,0,0-7.29,3l-38.21,38.2H20.61v-10.3H51.53a10.3,10.3,0,0,0,7.28-3L97,139.13h21.49a10.31,10.31,0,0,0,0-20.61H92.75a10.33,10.33,0,0,0-7.29,3l-38.2,38.21H20.61V97.9h97.9a10.31,10.31,0,1,0,0-20.61H20.61V67h97.9a10.31,10.31,0,1,0,0-20.61H20.61V30.92A10.32,10.32,0,0,1,30.92,20.61h185.5a10.31,10.31,0,0,1,10.3,10.31Z"/><path d="M201,36.07H149.43a10.3,10.3,0,0,0-10.3,10.31V97.9a10.31,10.31,0,0,0,10.3,10.31H201a10.31,10.31,0,0,0,10.3-10.31V46.38A10.3,10.3,0,0,0,201,36.07ZM190.65,87.6H159.74V56.68h30.91Z"/><path d="M190.65,144.28a10.3,10.3,0,0,0-10.3,10.3v25.77a10.31,10.31,0,0,0,20.61,0V154.58A10.31,10.31,0,0,0,190.65,144.28Z"/><path d="M159.74,144.28a10.31,10.31,0,0,0-10.31,10.3v25.77a10.31,10.31,0,0,0,20.61,0V154.58A10.3,10.3,0,0,0,159.74,144.28Z"/><circle cx="159.74" cy="128.82" r="10.31"/><circle cx="190.65" cy="128.82" r="10.31"/><circle cx="159.74" cy="206.11" r="10.31"/><circle cx="190.65" cy="206.11" r="10.31"/></g></g></svg>