<svg xmlns="http://www.w3.org/2000/svg" viewBox="0 0 247.33 216.42"><g id="Layer_2" data-name="Layer 2"><g id="Icon"><path d="M226.72,37.87V30.92A31,31,0,0,0,195.81,0H30.92A31,31,0,0,0,0,30.92V138.71a31,31,0,0,0,30.92,30.92h72.14v26.18H87.6a10.31,10.31,0,1,0,0,20.61h51.53a10.31,10.31,0,0,0,10.07-8.15A30.77,30.77,0,0,0,170,216.42h46.38a31,31,0,0,0,30.91-30.92V67A31,31,0,0,0,226.72,37.87ZM20.61,138.71V30.92A10.32,10.32,0,0,1,30.92,20.61H195.81a10.31,10.31,0,0,1,10.3,10.31v5.15H170A31,31,0,0,0,139.13,67v82H30.92A10.32,10.32,0,0,1,20.61,138.71Zm103.06,57.1V169.63h15.46V185.5A30.66,30.66,0,0,0,141,196a10.49,10.49,0,0,0-1.87-.18ZM226.72,185.5a10.32,10.32,0,0,1-10.3,10.31H170a10.32,10.32,0,0,1-10.3-10.31V67A10.31,10.31,0,0,1,170,56.68h46.38A10.31,10.31,0,0,1,226.72,67Z"/><path d="M201,159.74H185.5a10.31,10.31,0,1,0,0,20.61H201a10.31,10.31,0,0,0,0-20.61Z"/></g></g></svg>