<svg xmlns="http://www.w3.org/2000/svg" viewBox="0 0 247.33 247.33"><g id="Layer_2" data-name="Layer 2"><g id="Icon"><path d="M216.42,0H30.92A31,31,0,0,0,0,30.92v185.5a31,31,0,0,0,30.92,30.91h185.5a30.94,30.94,0,0,0,30.91-30.91V30.92A31,31,0,0,0,216.42,0ZM20.61,216.42V30.92A10.33,10.33,0,0,1,30.92,20.61H92.75V226.72H30.92A10.32,10.32,0,0,1,20.61,216.42Zm206.11,0a10.31,10.31,0,0,1-10.3,10.3h-5.16V201a10.31,10.31,0,1,0-20.61,0v25.76h-10.3V201a10.31,10.31,0,1,0-20.61,0v25.76H149.43V201a10.31,10.31,0,1,0-20.61,0v25.76H113.36V20.61H216.42a10.32,10.32,0,0,1,10.3,10.31Z"/><path d="M72.14,190.65H41.22a10.31,10.31,0,0,0,0,20.61H72.14a10.31,10.31,0,0,0,0-20.61Z"/><circle cx="56.68" cy="46.38" r="10.31"/><path d="M72.14,72.14H41.22a10.3,10.3,0,0,0-10.3,10.3v56.69a10.3,10.3,0,0,0,10.3,10.3H72.14a10.3,10.3,0,0,0,10.3-10.3V82.44A10.3,10.3,0,0,0,72.14,72.14ZM61.83,128.82H51.53V92.75h10.3Z"/><path d="M203.09,33.94a10.29,10.29,0,0,0-14.57,0L137,85.46a10.3,10.3,0,0,0,4.33,17.16l35,10.5L131.84,157.6a10.31,10.31,0,0,0,14.57,14.58l56.68-56.68a10.3,10.3,0,0,0-4.33-17.16l-35-10.5,39.32-39.33A10.29,10.29,0,0,0,203.09,33.94Z"/></g></g></svg>