<svg xmlns="http://www.w3.org/2000/svg" viewBox="0 0 247.33 247.33"><g id="Layer_2" data-name="Layer 2"><g id="Icon"><path d="M216.42,0H30.92A31,31,0,0,0,0,30.92v185.5a31,31,0,0,0,30.92,30.91h185.5a30.94,30.94,0,0,0,30.91-30.91V30.92A31,31,0,0,0,216.42,0Zm10.3,216.42a10.31,10.31,0,0,1-10.3,10.3H30.92a10.32,10.32,0,0,1-10.31-10.3V30.92A10.32,10.32,0,0,1,30.92,20.61h185.5a10.31,10.31,0,0,1,10.3,10.31Z"/><path d="M151.61,137.15c11.49-1,24.24-5,34.89-15.63,26.74-26.74,8.51-62.53,7.72-64A10.3,10.3,0,0,0,177.8,55L137,95.73c-1-11.49-5-24.24-15.62-34.89-26.75-26.74-62.54-8.51-64-7.73a10.31,10.31,0,0,0-2.51,16.42l38.66,38.66a47.8,47.8,0,0,0-29.17,14.12c-26,26-12.49,64.74-11.9,66.38a10.28,10.28,0,0,0,7.45,6.56,10.14,10.14,0,0,0,2.25.25,10.26,10.26,0,0,0,7.28-3l38.66-38.66A47.78,47.78,0,0,0,122.2,183c12.62,12.62,28.23,15.94,41.15,15.94a81.11,81.11,0,0,0,25.23-4,10.29,10.29,0,0,0,3.79-17Zm28.54-55.39c.84,7.8-.39,17.34-8.23,25.18s-18,9.87-26.7,9.87h-.12Zm-73.32-6.35c7.82,7.82,9.89,18.09,9.87,26.83l-35-35C89.46,66.35,99,67.57,106.83,75.41ZM69,163.78c0-8.71,2-19,10-26.89a28.78,28.78,0,0,1,21-8.46,39.76,39.76,0,0,1,4.14.23Zm94.47,14.58c-8.67,0-18.83-2.11-26.67-9.94s-9.06-17.39-8.22-25.19l35.13,35.13Z"/><circle cx="41.22" cy="41.22" r="10.31" transform="translate(-12.64 63.53) rotate(-67.5)"/><circle cx="206.11" cy="41.22" r="10.31" transform="translate(89.15 215.87) rotate(-67.5)"/><circle cx="41.22" cy="206.11" r="10.31" transform="translate(-32.48 9.26) rotate(-9.22)"/><circle cx="206.11" cy="206.11" r="10.31" transform="translate(-63.19 317.66) rotate(-67.5)"/></g></g></svg>