<svg xmlns="http://www.w3.org/2000/svg" viewBox="0 0 247.33 247.33"><g id="Layer_2" data-name="Layer 2"><g id="Icon"><path d="M170,67H77.29A10.3,10.3,0,0,0,67,77.29V170a10.31,10.31,0,0,0,10.3,10.31H170A10.32,10.32,0,0,0,180.35,170V77.29A10.31,10.31,0,0,0,170,67Zm-10.3,92.75H87.6V87.6h72.14Z"/><path d="M237,134a10.31,10.31,0,0,0,0-20.61H216.42V92.75H237a10.31,10.31,0,0,0,0-20.61H216.42V61.83A31,31,0,0,0,185.5,30.92H175.19V10.31a10.31,10.31,0,1,0-20.61,0V30.92H134V10.31a10.31,10.31,0,1,0-20.61,0V30.92H92.75V10.31a10.31,10.31,0,1,0-20.61,0V30.92H61.83A30.94,30.94,0,0,0,30.92,61.83V72.14H10.31a10.31,10.31,0,1,0,0,20.61H30.92v20.61H10.31a10.31,10.31,0,1,0,0,20.61H30.92v20.61H10.31a10.31,10.31,0,1,0,0,20.61H30.92V185.5a31,31,0,0,0,30.91,30.92H72.14V237a10.31,10.31,0,0,0,20.61,0V216.42h20.61V237A10.31,10.31,0,0,0,134,237V216.42h20.61V237a10.31,10.31,0,0,0,20.61,0V216.42H185.5a31,31,0,0,0,30.92-30.92V175.19H237a10.31,10.31,0,0,0,0-20.61H216.42V134ZM195.81,185.5a10.33,10.33,0,0,1-10.31,10.31H61.83a10.32,10.32,0,0,1-10.3-10.31V61.83a10.31,10.31,0,0,1,10.3-10.3H185.5a10.32,10.32,0,0,1,10.31,10.3Z"/></g></g></svg>