<svg xmlns="http://www.w3.org/2000/svg" viewBox="0 0 185.5 247.33"><g id="Layer_2" data-name="Layer 2"><g id="Icon"><path d="M154.58,0H30.92A31,31,0,0,0,0,30.92v185.5a31,31,0,0,0,30.92,30.91H154.58a31,31,0,0,0,30.92-30.91V30.92A31,31,0,0,0,154.58,0Zm10.31,216.42a10.32,10.32,0,0,1-10.31,10.3H30.92a10.32,10.32,0,0,1-10.31-10.3V30.92A10.33,10.33,0,0,1,30.92,20.61H154.58a10.33,10.33,0,0,1,10.31,10.31Z"/><path d="M92.75,41.22A61.76,61.76,0,0,0,45.54,142.88l-6.71,7.29a25.86,25.86,0,1,0,44.39,22.4l1.59-8.23a63.27,63.27,0,0,0,7.94.55,61.84,61.84,0,0,0,0-123.67ZM60.08,172.48a5.19,5.19,0,0,1-7.43-3.75,5.27,5.27,0,0,1,1.34-4.6l12.48-13.54L63,168.67A5.28,5.28,0,0,1,60.08,172.48Zm32.67-28.2c-1.36,0-2.68-.19-4-.32l4.83-25.07A10.31,10.31,0,0,0,75.87,110L59.64,127.57a41.2,41.2,0,1,1,33.11,16.71Z"/><circle cx="36.07" cy="36.07" r="10.31" transform="translate(-5.31 6.24) rotate(-9.22)"/><circle cx="149.43" cy="36.07" r="10.31" transform="translate(-3.85 24.4) rotate(-9.22)"/><circle cx="36.07" cy="211.26" r="10.31" transform="translate(-172.92 163.74) rotate(-67.5)"/><circle cx="149.43" cy="211.26" r="10.31" transform="translate(-31.91 26.66) rotate(-9.22)"/></g></g></svg>