<svg xmlns="http://www.w3.org/2000/svg" viewBox="0 0 163.45 247.33"><g id="Layer_2" data-name="Layer 2"><g id="Icon"><path d="M81.73,180.35a51.58,51.58,0,0,0,51.52-51.53V51.53a51.53,51.53,0,1,0-103,0v77.29A51.59,51.59,0,0,0,81.73,180.35Zm0-159.74a31,31,0,0,1,30.91,30.92v77.29a30.9,30.9,0,0,1-60,10.31H81.73a10.31,10.31,0,0,0,0-20.62H50.81V103.06H81.73a10.31,10.31,0,0,0,0-20.62H50.81V67H81.73a10.31,10.31,0,0,0,0-20.61H51.27A31,31,0,0,1,81.73,20.61Z"/><path d="M154.6,128.92A10.32,10.32,0,0,0,143,137.66a61.86,61.86,0,0,1-122.44,0,10.3,10.3,0,1,0-20.4,2.93c5.27,36.84,35.08,65.32,71.31,69.94V237A10.31,10.31,0,0,0,92,237v-26.5c36.23-4.62,66-33.1,71.31-69.94A10.3,10.3,0,0,0,154.6,128.92Z"/></g></g></svg>