<svg xmlns="http://www.w3.org/2000/svg" viewBox="0 0 247.33 247.33"><g id="Layer_2" data-name="Layer 2"><g id="Icon"><path d="M216.42,139.13H201v-67a10.31,10.31,0,1,0-20.61,0v67H30.92A31,31,0,0,0,0,170V201a31,31,0,0,0,25.76,30.45V237a10.31,10.31,0,0,0,20.62,0v-5.15H201V237a10.31,10.31,0,0,0,20.61,0v-5.62A30.94,30.94,0,0,0,247.33,201V170A30.94,30.94,0,0,0,216.42,139.13ZM226.72,201a10.31,10.31,0,0,1-10.3,10.3H30.92A10.31,10.31,0,0,1,20.61,201V170a10.31,10.31,0,0,1,10.31-10.3h185.5a10.31,10.31,0,0,1,10.3,10.3Z"/><path d="M165.17,41.42a10.3,10.3,0,1,0,14.49,14.65,16,16,0,0,1,22,0,10.3,10.3,0,0,0,14.49-14.65,36.18,36.18,0,0,0-51,0Z"/><path d="M157.85,34.19a46.4,46.4,0,0,1,65.6,0A10.31,10.31,0,1,0,238,19.61a67,67,0,0,0-94.75,0,10.31,10.31,0,0,0,14.57,14.58Z"/><circle cx="190.65" cy="185.5" r="10.31"/><path d="M118.51,175.19H46.38a10.31,10.31,0,1,0,0,20.62h72.13a10.31,10.31,0,0,0,0-20.62Z"/><circle cx="154.58" cy="185.5" r="10.31"/></g></g></svg>