<svg xmlns="http://www.w3.org/2000/svg" viewBox="0 0 257.64 200.96"><g id="Layer_2" data-name="Layer 2"><g id="Icon"><path d="M225.27,25.76h-184V10.31A10.3,10.3,0,0,0,30.92,0H10.31a10.31,10.31,0,1,0,0,20.61h10.3V185.5a10.31,10.31,0,1,0,20.61,0V170H51.53v10.31A20.63,20.63,0,0,0,72.14,201h30.92a20.64,20.64,0,0,0,20.61-20.61V170h15.46v10.31A20.63,20.63,0,0,0,159.74,201h51.52a20.64,20.64,0,0,0,20.62-20.61v-11a32.42,32.42,0,0,0,25.76-31.68V58.13A32.41,32.41,0,0,0,225.27,25.76ZM103.07,180.35H72.14V170h30.92ZM159.74,170h15.45v10.31H159.74Zm36.07,10.31V170h15.46v10.31ZM237,137.68a11.77,11.77,0,0,1-11.76,11.75h-184v-103H225.27A11.77,11.77,0,0,1,237,58.13Z"/><path d="M185.5,61.83A36.07,36.07,0,1,0,221.57,97.9,36.11,36.11,0,0,0,185.5,61.83Zm0,51.53A15.46,15.46,0,1,1,201,97.9,15.48,15.48,0,0,1,185.5,113.36Z"/><path d="M128.82,67H67A10.31,10.31,0,1,0,67,87.6h61.83a10.31,10.31,0,1,0,0-20.61Z"/><path d="M128.82,108.21H67a10.31,10.31,0,1,0,0,20.61h61.83a10.31,10.31,0,1,0,0-20.61Z"/></g></g></svg>