<svg xmlns="http://www.w3.org/2000/svg" viewBox="0 0 247.33 247.33"><g id="Layer_2" data-name="Layer 2"><g id="Icon"><path d="M244.31,123.25l-17.46-17.46,6.85-6.86a20.28,20.28,0,0,0,0-28.72L177.13,13.63c-7.67-7.68-21-7.68-28.72,0l-6.86,6.86L124.08,3a10.3,10.3,0,0,0-14.57,14.57l3.32,3.33L63.53,70.21a30.22,30.22,0,0,0-7.78,29L35.24,119.72a10.31,10.31,0,0,0,14.58,14.57l17.47-17.47,3.87,3.87L54.22,141.87a20.28,20.28,0,0,0,1.5,27L59.79,173,3,229.74a10.3,10.3,0,1,0,14.57,14.57l56.77-56.76,4.06,4.06a20.28,20.28,0,0,0,27.05,1.5l21.17-16.93,3.87,3.87L113,197.52a10.31,10.31,0,0,0,14.58,14.57l20.5-20.51a29.51,29.51,0,0,0,29-7.78l49.3-49.3,3.32,3.33a10.31,10.31,0,1,0,14.57-14.58Zm-81.76-95,56.37,56.37-6.65,6.64L156,35ZM92.8,176.85,70.32,154.74l15.5-19.38L112,161.51Zm69.75-7.62a9.94,9.94,0,0,1-13.72,0L78.11,98.5a9.71,9.71,0,0,1,0-13.72L127.4,35.49l84.44,84.44Z"/><path d="M95.36,87.89a10.31,10.31,0,0,0,0,14.57L144.87,152a10.3,10.3,0,0,0,14.57,0l28.29-28.29a10.29,10.29,0,0,0,0-14.57L138.22,59.6a10.29,10.29,0,0,0-14.57,0Zm70.51,28.51-13.71,13.71L117.22,95.18l13.72-13.72Z"/></g></g></svg>