<svg xmlns="http://www.w3.org/2000/svg" viewBox="0 0 251.28 175.19"><g id="Layer_2" data-name="Layer 2"><g id="Icon"><path d="M79.26,30.92a30.92,30.92,0,1,0,30.92,30.91A30.94,30.94,0,0,0,79.26,30.92Zm0,41.22A10.31,10.31,0,1,1,89.57,61.83,10.31,10.31,0,0,1,79.26,72.14Z"/><path d="M197.78,51.53H187.47V41.22a10.31,10.31,0,0,0-20.61,0V51.53H156.55a10.31,10.31,0,0,0,0,20.61h10.31v10.3a10.31,10.31,0,1,0,20.61,0V72.14h10.31a10.31,10.31,0,0,0,0-20.61Z"/><path d="M250.29,118.81c0-.07,0-.14,0-.21L228.48,23.67C225.55,9.51,213.21,0,197.78,0H53.5C38.07,0,25.73,9.51,22.84,23.46L1,118.81a46.88,46.88,0,0,0,90.82,23l5.44-18.11H154l5.43,18.11a46.88,46.88,0,0,0,90.82-23ZM224.76,144.9a26.28,26.28,0,0,1-45.54-9l-7.64-25.46a10.3,10.3,0,0,0-9.87-7.34H89.57a10.29,10.29,0,0,0-9.87,7.34l-7.64,25.46A26.27,26.27,0,0,1,21.12,123.2L43,27.85c1.39-6.72,8.41-7.24,10.52-7.24H197.78c2.11,0,9.13.52,10.56,7.46l21.79,95A26.16,26.16,0,0,1,224.76,144.9Z"/></g></g></svg>