<svg xmlns="http://www.w3.org/2000/svg" viewBox="0 0 154.58 247.33"><g id="Layer_2" data-name="Layer 2"><g id="Icon"><path d="M122.58,0H32A32.07,32.07,0,0,0,0,32V199.88a32.06,32.06,0,0,0,25.76,31.38V237a10.31,10.31,0,0,0,20.62,0v-5.15h61.83V237a10.31,10.31,0,0,0,20.61,0v-5.77a32,32,0,0,0,25.76-31.38V32A32.06,32.06,0,0,0,122.58,0ZM134,199.88a11.39,11.39,0,0,1-11.39,11.38H32a11.39,11.39,0,0,1-11.39-11.38V32A11.39,11.39,0,0,1,32,20.61h90.58A11.39,11.39,0,0,1,134,32Z"/><path d="M108.21,36.07H46.38a10.31,10.31,0,1,0,0,20.61h61.83a10.31,10.31,0,0,0,0-20.61Z"/><path d="M108.21,72.14H46.38a10.31,10.31,0,1,0,0,20.61h61.83a10.31,10.31,0,0,0,0-20.61Z"/><path d="M77.29,134a30.92,30.92,0,1,0,30.92,30.92A30.95,30.95,0,0,0,77.29,134Zm0,41.22a10.31,10.31,0,1,1,10.31-10.3A10.31,10.31,0,0,1,77.29,175.19Z"/></g></g></svg>