<svg xmlns="http://www.w3.org/2000/svg" viewBox="0 0 247.33 247.33"><g id="Layer_2" data-name="Layer 2"><g id="Icon"><path d="M164.89,190.65H46.38a10.31,10.31,0,1,0,0,20.61H164.89a10.31,10.31,0,1,0,0-20.61Z"/><circle cx="200.96" cy="200.96" r="10.31"/><path d="M244.39,169,199.92,18.26a9.35,9.35,0,0,0-.36-1C195.31,6.93,183.57,0,170.35,0H77C63.77,0,52,6.93,47.77,17.25a9.28,9.28,0,0,0-.35,1L3,169A72,72,0,0,0,0,189.37v27a30.91,30.91,0,0,0,30.92,30.91h185.5a30.91,30.91,0,0,0,30.91-30.91v-27A72.39,72.39,0,0,0,244.39,169ZM67,24.8c1-1.83,4.58-4.19,10-4.19h93.36c5.42,0,9,2.36,10,4.19l38.32,129.78h-190ZM226.72,216.42a10.31,10.31,0,0,1-10.3,10.3H30.92a10.32,10.32,0,0,1-10.31-10.3V185.5a10.33,10.33,0,0,1,10.31-10.31h185.5a10.32,10.32,0,0,1,10.3,10.31Z"/></g></g></svg>