<svg xmlns="http://www.w3.org/2000/svg" viewBox="0 0 247.33 103.06"><g id="Layer_2" data-name="Layer 2"><g id="Icon"><path d="M216.42,0H30.92A31,31,0,0,0,0,30.92V51.53A31,31,0,0,0,30.92,82.44h5.15l6.18,8.26A31.1,31.1,0,0,0,67,103.06H180.35a31.06,31.06,0,0,0,24.73-12.37l6.18-8.25h5.16a30.94,30.94,0,0,0,30.91-30.91V30.92A31,31,0,0,0,216.42,0Zm10.3,51.53a10.31,10.31,0,0,1-10.3,10.3H206.11A10.34,10.34,0,0,0,197.86,66L188.6,78.32a10.38,10.38,0,0,1-8.25,4.12H67a10.37,10.37,0,0,1-8.25-4.12L49.47,66a10.32,10.32,0,0,0-8.25-4.12H30.92a10.32,10.32,0,0,1-10.31-10.3V30.92A10.33,10.33,0,0,1,30.92,20.61h185.5a10.32,10.32,0,0,1,10.3,10.31Z"/><path d="M206.11,30.92H41.22a10.31,10.31,0,0,0,0,20.61H206.11a10.31,10.31,0,1,0,0-20.61Z"/></g></g></svg>