<svg xmlns="http://www.w3.org/2000/svg" viewBox="0 0 206.11 247.33"><g id="Layer_2" data-name="Layer 2"><g id="Icon"><path d="M175.19,0H75.52A30.73,30.73,0,0,0,53.66,9.06L9.05,53.66A30.75,30.75,0,0,0,0,75.53V216.42a31,31,0,0,0,30.92,30.91H175.19a31,31,0,0,0,30.92-30.91V30.92A31,31,0,0,0,175.19,0ZM185.5,216.42a10.31,10.31,0,0,1-10.31,10.3H30.92a10.31,10.31,0,0,1-10.31-10.3V75.53a10.25,10.25,0,0,1,3-7.3l44.61-44.6a10.36,10.36,0,0,1,7.28-3h99.67A10.32,10.32,0,0,1,185.5,30.92Z"/><path d="M159.74,36.07a10.31,10.31,0,0,0-10.31,10.31V77.29a10.31,10.31,0,1,0,20.61,0V46.38A10.3,10.3,0,0,0,159.74,36.07Z"/><path d="M123.67,36.07a10.31,10.31,0,0,0-10.31,10.31V77.29a10.31,10.31,0,1,0,20.61,0V46.38A10.3,10.3,0,0,0,123.67,36.07Z"/><path d="M87.6,36.07A10.31,10.31,0,0,0,77.29,46.38V77.29a10.31,10.31,0,1,0,20.61,0V46.38A10.3,10.3,0,0,0,87.6,36.07Z"/></g></g></svg>