<svg xmlns="http://www.w3.org/2000/svg" viewBox="0 0 206.11 247.33"><g id="Layer_2" data-name="Layer 2"><g id="Icon"><path d="M175.19,0H30.92A31,31,0,0,0,0,30.92v185.5a31,31,0,0,0,30.92,30.91H175.19a31,31,0,0,0,30.92-30.91V30.92A31,31,0,0,0,175.19,0ZM185.5,216.42a10.31,10.31,0,0,1-10.31,10.3H30.92a10.31,10.31,0,0,1-10.31-10.3V30.92A10.32,10.32,0,0,1,30.92,20.61H175.19A10.32,10.32,0,0,1,185.5,30.92Z"/><path d="M134,30.92a10.3,10.3,0,0,0-10.3,10.3V67a10.31,10.31,0,0,0,20.61,0V41.22A10.31,10.31,0,0,0,134,30.92Z"/><path d="M103.06,30.92a10.3,10.3,0,0,0-10.31,10.3V67a10.31,10.31,0,0,0,20.61,0V41.22A10.3,10.3,0,0,0,103.06,30.92Z"/><path d="M72.14,30.92a10.31,10.31,0,0,0-10.31,10.3V67a10.31,10.31,0,0,0,20.61,0V41.22A10.3,10.3,0,0,0,72.14,30.92Z"/><circle cx="41.22" cy="103.06" r="10.31"/><circle cx="164.89" cy="103.06" r="10.31" transform="translate(-14.38 27.74) rotate(-9.22)"/><circle cx="41.22" cy="206.11" r="10.31"/><circle cx="164.89" cy="206.11" r="10.31" transform="translate(-30.89 29.07) rotate(-9.22)"/><path d="M164.89,30.92a10.31,10.31,0,0,0-10.31,10.3V67a10.31,10.31,0,0,0,20.61,0V41.22A10.3,10.3,0,0,0,164.89,30.92Z"/><path d="M41.22,30.92a10.3,10.3,0,0,0-10.3,10.3V67a10.31,10.31,0,0,0,20.61,0V41.22A10.31,10.31,0,0,0,41.22,30.92Z"/></g></g></svg>