<svg xmlns="http://www.w3.org/2000/svg" viewBox="0 0 247.33 247.33"><g id="Layer_2" data-name="Layer 2"><g id="Icon"><circle cx="206.11" cy="206.11" r="10.31" transform="translate(-30.35 35.68) rotate(-9.22)"/><path d="M41.22,216.42h134a10.31,10.31,0,1,0,0-20.61h-134a10.31,10.31,0,0,0,0,20.61Z"/><circle cx="206.11" cy="144.28" r="10.31" transform="translate(-6.06 279.49) rotate(-67.5)"/><path d="M175.19,134h-134a10.31,10.31,0,0,0,0,20.61h134a10.31,10.31,0,1,0,0-20.61Z"/><path d="M242,54.86l.1,0-24-44.09A20.6,20.6,0,0,0,200,0H52A20.53,20.53,0,0,0,34.64,9.55L5.31,54.83h0A30.77,30.77,0,0,0,0,72.14V218a29.42,29.42,0,0,0,29.39,29.38H218A29.41,29.41,0,0,0,247.33,218V72.14A30.73,30.73,0,0,0,242,54.86Zm-15.32,48.2H20.61V72.14A10.32,10.32,0,0,1,30.92,61.83h185.5a10.32,10.32,0,0,1,10.3,10.31ZM20.61,123.67H226.72v41.22H20.61ZM200,20.61l11.24,20.61H38.91L52,20.61ZM226.72,218a8.78,8.78,0,0,1-8.77,8.77H29.39A8.78,8.78,0,0,1,20.61,218V185.5H226.72Z"/><circle cx="206.11" cy="82.44" r="10.31" transform="translate(-13.43 49.56) rotate(-13.28)"/><path d="M175.19,72.14h-134a10.31,10.31,0,0,0,0,20.61h134a10.31,10.31,0,1,0,0-20.61Z"/></g></g></svg>