<svg xmlns="http://www.w3.org/2000/svg" viewBox="0 0 247.33 247.33"><g id="Layer_2" data-name="Layer 2"><g id="Icon"><path d="M216.42,0H164.89A30.94,30.94,0,0,0,134,30.92V51.53h-103A30.94,30.94,0,0,0,0,82.44v92.75a30.94,30.94,0,0,0,30.92,30.92H92.75v20.61H77.29a10.31,10.31,0,0,0,0,20.61h51.53a10.31,10.31,0,1,0,0-20.61H113.36V206.11H134v10.31a30.94,30.94,0,0,0,30.92,30.91h51.53a30.94,30.94,0,0,0,30.91-30.91V30.92A30.94,30.94,0,0,0,216.42,0ZM30.92,185.5a10.34,10.34,0,0,1-10.31-10.31V82.44a10.34,10.34,0,0,1,10.31-10.3H167.47a10.34,10.34,0,0,1,10.3,10.3v92.75a10.34,10.34,0,0,1-10.3,10.31Zm195.8,30.92a10.33,10.33,0,0,1-10.3,10.3H164.89a10.33,10.33,0,0,1-10.31-10.3V206.11h12.89a30.94,30.94,0,0,0,30.91-30.92V82.44a30.94,30.94,0,0,0-30.91-30.91H154.58V30.92a10.34,10.34,0,0,1,10.31-10.31h51.53a10.34,10.34,0,0,1,10.3,10.31Z"/></g></g></svg>