<svg xmlns="http://www.w3.org/2000/svg" viewBox="0 0 247.33 144.28"><g id="Layer_2" data-name="Layer 2"><g id="Icon"><path d="M216.16,0h-185A31.18,31.18,0,0,0,0,31.17V113.1a31.18,31.18,0,0,0,31.17,31.18h185a31.18,31.18,0,0,0,31.17-31.18V31.17A31.18,31.18,0,0,0,216.16,0Zm10.56,113.1a10.58,10.58,0,0,1-10.56,10.57h-185A10.58,10.58,0,0,1,20.61,113.1V31.17A10.58,10.58,0,0,1,31.17,20.61h185a10.58,10.58,0,0,1,10.56,10.56Z"/><path d="M170,92.75H77.29a10.31,10.31,0,0,0,0,20.61H170a10.31,10.31,0,1,0,0-20.61Z"/><path d="M118.51,51.53h10.31a10.31,10.31,0,1,0,0-20.61H118.51a10.31,10.31,0,0,0,0,20.61Z"/><path d="M154.58,51.53h10.31a10.31,10.31,0,0,0,0-20.61H154.58a10.31,10.31,0,0,0,0,20.61Z"/><path d="M82.44,51.53H92.75a10.31,10.31,0,1,0,0-20.61H82.44a10.31,10.31,0,0,0,0,20.61Z"/><path d="M67,41.22a10.31,10.31,0,0,0-10.31-10.3H46.38a10.31,10.31,0,1,0,0,20.61h10.3A10.32,10.32,0,0,0,67,41.22Z"/><path d="M201,30.92H190.65a10.31,10.31,0,0,0,0,20.61H201a10.31,10.31,0,0,0,0-20.61Z"/><path d="M110.78,61.83h-10.3a10.31,10.31,0,1,0,0,20.61h10.3a10.31,10.31,0,1,0,0-20.61Z"/><path d="M85,72.14a10.31,10.31,0,0,0-10.3-10.31H64.41a10.31,10.31,0,1,0,0,20.61H74.72A10.3,10.3,0,0,0,85,72.14Z"/><path d="M146.85,61.83h-10.3a10.31,10.31,0,1,0,0,20.61h10.3a10.31,10.31,0,1,0,0-20.61Z"/><path d="M182.92,61.83h-10.3a10.31,10.31,0,1,0,0,20.61h10.3a10.31,10.31,0,1,0,0-20.61Z"/></g></g></svg>