<svg xmlns="http://www.w3.org/2000/svg" viewBox="0 0 185.5 185.5"><g id="Layer_2" data-name="Layer 2"><g id="Icon"><path d="M164.89,0H20.61A20.63,20.63,0,0,0,0,20.61V123.67A10.3,10.3,0,0,0,10.31,134H30.92v20.61a10.31,10.31,0,0,0,10.3,10.31H56.68v10.3A10.3,10.3,0,0,0,67,185.5h51.52a10.3,10.3,0,0,0,10.31-10.31v-10.3h15.46a10.31,10.31,0,0,0,10.3-10.31V134h20.61a10.3,10.3,0,0,0,10.31-10.3V20.61A20.63,20.63,0,0,0,164.89,0ZM144.28,113.36A10.32,10.32,0,0,0,134,123.67v20.61H118.51a10.3,10.3,0,0,0-10.3,10.3v10.31H77.29V154.58A10.3,10.3,0,0,0,67,144.28H51.53V123.67a10.32,10.32,0,0,0-10.31-10.31H20.61V20.61H61.83V61.83a10.31,10.31,0,1,0,20.61,0V20.61h20.62V61.83a10.31,10.31,0,1,0,20.61,0V20.61h41.22v92.75Z"/></g></g></svg>