<svg xmlns="http://www.w3.org/2000/svg" viewBox="0 0 226.72 164.89"><g id="Layer_2" data-name="Layer 2"><g id="Icon"><path d="M216.42,10.31a10.31,10.31,0,0,0-10.31,10.3v5.15H158.56a61.62,61.62,0,0,0-21.17-5A31,31,0,0,0,108.21,0H30.92A31,31,0,0,0,0,30.92V134a31,31,0,0,0,30.92,30.92h77.29a31,31,0,0,0,29.18-20.79,61.38,61.38,0,0,0,21.17-5h47.55v5.15a10.31,10.31,0,0,0,20.61,0V20.61A10.3,10.3,0,0,0,216.42,10.31ZM118.51,134a10.32,10.32,0,0,1-10.3,10.31H30.92A10.33,10.33,0,0,1,20.61,134v-103A10.33,10.33,0,0,1,30.92,20.61h77.29a10.32,10.32,0,0,1,10.3,10.31Zm20.62-60.4a10.22,10.22,0,0,1,0,17.75Zm0,49.74V112.9a30.88,30.88,0,0,0,0-60.91V41.58a41.19,41.19,0,0,1,0,81.73Zm67-4.8h-22a61.35,61.35,0,0,0,0-72.13h22Z"/></g></g></svg>