<svg xmlns="http://www.w3.org/2000/svg" viewBox="0 0 247.33 201.1"><g id="Layer_2" data-name="Layer 2"><g id="Icon"><path d="M225,106.46l-13.7-4V95.09c0-29.95-13.24-58.47-35.43-76.29-31.2-25.06-73.13-25.07-104.32,0C49.32,36.62,36.07,65.14,36.07,95.09v7.38l-13.7,4A31.38,31.38,0,0,0,0,136.54v31.33A31.41,31.41,0,0,0,22.38,198l8,2.31a20.29,20.29,0,0,0,18-3.29,20.66,20.66,0,0,0,8.32-16.69V95.09c0-23.76,10.37-46.28,27.73-60.22,23.48-18.86,55-18.86,78.51,0,17.37,13.94,27.73,36.46,27.73,60.22v85.2A20.66,20.66,0,0,0,199,197a20.31,20.31,0,0,0,18,3.29l8-2.32a31.38,31.38,0,0,0,22.37-30.08V136.54A31.37,31.37,0,0,0,225,106.46Zm-188.84,74h0l-8-2.31a10.71,10.71,0,0,1-7.52-10.3V136.54a10.71,10.71,0,0,1,7.52-10.3l7.94-2.12v7.08s0,.05,0,.08l.05,49.21Zm190.6-12.62a10.67,10.67,0,0,1-7.52,10.29l-8,2.32,0-.19,0-48.66c0-.14,0-.28,0-.43v-7.27l7.94,2.31a10.69,10.69,0,0,1,7.52,10.3Z"/></g></g></svg>