<svg xmlns="http://www.w3.org/2000/svg" viewBox="0 0 247.33 247.47"><g id="Layer_2" data-name="Layer 2"><g id="Icon"><path d="M225,96.15l-13.8-4c-.84-28.86-13.88-56.1-35.33-73.33C144.62-6.26,102.7-6.27,71.51,18.8,50.06,36,37,63.25,36.17,92.11l-13.79,4A31.38,31.38,0,0,0,0,126.24v31.32a31.4,31.4,0,0,0,22.38,30.09l8,2.32a19.33,19.33,0,0,0,9.8.37c14.6,42.48,64.44,57.13,83.51,57.13a10.31,10.31,0,0,0,0-20.61c-8.78,0-67-11.53-67-61.83V95.09c0-23.76,10.37-46.28,27.74-60.22,23.47-18.87,55-18.86,78.5,0,17.37,13.94,27.73,36.46,27.73,60.22V170a20.68,20.68,0,0,0,8.32,16.7A20.31,20.31,0,0,0,217,190l8-2.32a31.4,31.4,0,0,0,22.37-30.09V126.24A31.39,31.39,0,0,0,225,96.15Zm-188.85,74h0l-8-2.32a10.69,10.69,0,0,1-7.52-10.3V126.24a10.68,10.68,0,0,1,7.53-10.3l7.93-2.12,0,56.36Zm190.61-12.62a10.68,10.68,0,0,1-7.52,10.3l-8,2.32,0-.2,0-38.44c0-.11,0-.22,0-.34V113.63l7.94,2.31a10.68,10.68,0,0,1,7.52,10.3Z"/></g></g></svg>