<svg xmlns="http://www.w3.org/2000/svg" viewBox="0 0 242.18 144.28"><g id="Layer_2" data-name="Layer 2"><g id="Icon"><path d="M185.5,0H30.92A31,31,0,0,0,0,30.92v82.44a31,31,0,0,0,30.92,30.92H185.5a31,31,0,0,0,30.92-30.92V30.92A31,31,0,0,0,185.5,0Zm10.31,113.36a10.33,10.33,0,0,1-10.31,10.31H30.92a10.32,10.32,0,0,1-10.31-10.31V30.92A10.32,10.32,0,0,1,30.92,20.61H185.5a10.33,10.33,0,0,1,10.31,10.31Z"/><path d="M46.38,36.07A10.3,10.3,0,0,0,36.07,46.38V97.9a10.31,10.31,0,1,0,20.61,0V46.38A10.3,10.3,0,0,0,46.38,36.07Z"/><path d="M77.29,36.07A10.3,10.3,0,0,0,67,46.38V97.9a10.31,10.31,0,1,0,20.61,0V46.38A10.31,10.31,0,0,0,77.29,36.07Z"/><path d="M108.21,36.07A10.31,10.31,0,0,0,97.9,46.38V97.9a10.31,10.31,0,1,0,20.61,0V46.38A10.3,10.3,0,0,0,108.21,36.07Z"/><path d="M139.13,36.07a10.3,10.3,0,0,0-10.31,10.31V97.9a10.31,10.31,0,1,0,20.61,0V46.38A10.3,10.3,0,0,0,139.13,36.07Z"/><path d="M170,36.07a10.3,10.3,0,0,0-10.3,10.31V97.9a10.31,10.31,0,1,0,20.61,0V46.38A10.31,10.31,0,0,0,170,36.07Z"/><path d="M231.88,41.22a10.31,10.31,0,0,0-10.31,10.31V92.75a10.31,10.31,0,1,0,20.61,0V51.53A10.31,10.31,0,0,0,231.88,41.22Z"/></g></g></svg>