<svg xmlns="http://www.w3.org/2000/svg" viewBox="0 0 175.19 247.33"><g id="Layer_2" data-name="Layer 2"><g id="Icon"><path d="M144.28,0H30.92A31,31,0,0,0,0,30.92v185.5a31,31,0,0,0,30.92,30.91H144.28a30.94,30.94,0,0,0,30.91-30.91V30.92A31,31,0,0,0,144.28,0Zm10.3,216.42a10.31,10.31,0,0,1-10.3,10.3H30.92a10.32,10.32,0,0,1-10.31-10.3V30.92A10.33,10.33,0,0,1,30.92,20.61H144.28a10.32,10.32,0,0,1,10.3,10.31Z"/><path d="M87.6,36.07A51.53,51.53,0,1,0,139.13,87.6,51.59,51.59,0,0,0,87.6,36.07Zm0,82.44A30.92,30.92,0,1,1,118.51,87.6,30.95,30.95,0,0,1,87.6,118.51Z"/><path d="M87.6,149.43a30.92,30.92,0,1,0,30.91,30.92A31,31,0,0,0,87.6,149.43Zm0,41.22a10.31,10.31,0,1,1,10.3-10.3A10.32,10.32,0,0,1,87.6,190.65Z"/></g></g></svg>