<svg xmlns="http://www.w3.org/2000/svg" viewBox="0 0 247.33 195.81"><g id="Layer_2" data-name="Layer 2"><g id="Icon"><path d="M216.42,0H30.92A31,31,0,0,0,0,30.92v134a31,31,0,0,0,30.92,30.92h185.5a31,31,0,0,0,30.91-30.92v-134A31,31,0,0,0,216.42,0Zm10.3,164.89a10.31,10.31,0,0,1-10.3,10.3H30.92a10.31,10.31,0,0,1-10.31-10.3v-134A10.32,10.32,0,0,1,30.92,20.61h185.5a10.31,10.31,0,0,1,10.3,10.31Z"/><path d="M61.83,87.6H41.22a10.31,10.31,0,0,0,0,20.61H61.83a10.31,10.31,0,1,0,0-20.61Z"/><path d="M61.83,51.53H41.22a10.31,10.31,0,0,0,0,20.61H61.83a10.31,10.31,0,1,0,0-20.61Z"/><path d="M61.83,123.67H41.22a10.31,10.31,0,0,0,0,20.61H61.83a10.31,10.31,0,1,0,0-20.61Z"/><path d="M213.4,33.94a10.3,10.3,0,0,0-14.58,0l-9.94,9.94a66.52,66.52,0,0,0-78.9,0L100,33.94A10.31,10.31,0,1,0,85.46,48.51l10,10a66.47,66.47,0,0,0,0,78.89l-10,10A10.31,10.31,0,0,0,100,161.87l9.94-10a66.48,66.48,0,0,0,78.9,0l9.94,10A10.31,10.31,0,1,0,213.4,147.3l-10-10a66.47,66.47,0,0,0,0-78.89l10-10A10.31,10.31,0,0,0,213.4,33.94ZM134,97.9a15.46,15.46,0,1,1,15.46,15.46A15.48,15.48,0,0,1,134,97.9Zm15.46-46.37a46,46,0,0,1,24.64,7.16l-7.49,7.49a36,36,0,0,0-34.3,0l-7.49-7.49A46,46,0,0,1,149.43,51.53ZM103.06,97.9a46,46,0,0,1,7.16-24.64l7.49,7.49a36,36,0,0,0,0,34.3l-7.49,7.5A46.06,46.06,0,0,1,103.06,97.9Zm46.37,46.38a46,46,0,0,1-24.64-7.16l7.49-7.49a36.06,36.06,0,0,0,34.3,0l7.49,7.49A46,46,0,0,1,149.43,144.28ZM195.81,97.9a46.06,46.06,0,0,1-7.16,24.65l-7.5-7.5a36,36,0,0,0,0-34.3l7.5-7.49A46,46,0,0,1,195.81,97.9Z"/></g></g></svg>