<svg xmlns="http://www.w3.org/2000/svg" viewBox="0 0 247.33 170.04"><g id="Layer_2" data-name="Layer 2"><g id="Icon"><path d="M216.42,36.07h-.55a61.72,61.72,0,0,0-112.27,0H30.92C13.87,36.07,0,50.45,0,68.13v54.39c0,15.86,11.17,29,25.76,31.58v5.64a10.31,10.31,0,0,0,20.62,0v-5.16H201v5.16a10.31,10.31,0,0,0,20.61,0V154.1c14.6-2.55,25.76-15.72,25.76-31.58V68.13C247.33,50.45,233.47,36.07,216.42,36.07ZM159.74,20.61a41.23,41.23,0,1,1-41.23,41.22A41.27,41.27,0,0,1,159.74,20.61Zm67,101.91c0,6.31-4.62,11.45-10.3,11.45H30.92c-5.69,0-10.31-5.14-10.31-11.45V68.13c0-6.31,4.62-11.45,10.31-11.45H98.16c-.14,1.7-.26,3.41-.26,5.15a61.84,61.84,0,1,0,123.67,0c0-1.24-.11-2.45-.19-3.67a11.65,11.65,0,0,1,5.34,10Z"/><path d="M139.13,72.14a10.31,10.31,0,0,0,10.3-10.31,10.31,10.31,0,0,1,10.31-10.3,10.31,10.31,0,0,0,0-20.61,31,31,0,0,0-30.92,30.91A10.31,10.31,0,0,0,139.13,72.14Z"/><path d="M72.14,67H41.22a10.31,10.31,0,0,0,0,20.61H72.14a10.31,10.31,0,0,0,0-20.61Z"/><path d="M72.14,103.06H41.22a10.31,10.31,0,0,0,0,20.61H72.14a10.31,10.31,0,0,0,0-20.61Z"/></g></g></svg>